
        <svg xmlns="http://www.w3.org/2000/svg" xmlns:xlink="http://www.w3.org/1999/xlink" version="1.1" width="3300" 
        height="3105" viewBox="0 0 3300 3105">
			
			<g transform="scale(15) translate(10, 10)">
				<defs id="SvgjsDefs2710"></defs><g id="SvgjsG2711" featureKey="rootContainer" transform="matrix(1,0,0,1,0,0)" fill="#83b271"><rect y="0" height="1" width="1" opacity="0"></rect><rect y="182" width="200" height="5"></rect></g><g id="SvgjsG2712" featureKey="symbolFeature-0" transform="matrix(0.9289578176521972,0,0,0.9289578176521972,53.35606804244635,7.892937951710097)" fill="#83b271"><path xmlns="http://www.w3.org/2000/svg" d="M34,73.77a16.53,16.53,0,0,1,2.23-3.06,15.58,15.58,0,0,1-7.77-4.61c-3.88-4-6.06-9.47-4.66-11.73l.08-.1a3,3,0,0,1,.89-.68,109.29,109.29,0,0,0-13.3-4.86.75.75,0,0,1,.4-1.45,110.11,110.11,0,0,1,15.2,5.65A21.47,21.47,0,0,1,37.36,54.7a34.18,34.18,0,0,1-1-8.36A40.83,40.83,0,0,0,17,41.47c-5.6,0-10.14,1.27-11.6,3.45C2.4,51.38,16.66,73.57,34,73.77Z"></path><path xmlns="http://www.w3.org/2000/svg" d="M43.64,59.18a16.24,16.24,0,0,1,3.3-7.25l.26-.32c.91-16.06,6-31.79,6.26-32.69a.75.75,0,0,1,.94-.48.74.74,0,0,1,.48.94,152.61,152.61,0,0,0-6,30.35c3.3-3.32,7.27-5.29,9.34-4.38a.39.39,0,0,1,.11.06,5.36,5.36,0,0,1,1.84,3.37,31.54,31.54,0,0,1,5.46-2.17c2.09-16-4.73-34.36-10.17-35.73h-.17c-7.14,0-22,25.66-16.1,44.72A14.81,14.81,0,0,1,43.64,59.18Z"></path><path xmlns="http://www.w3.org/2000/svg" d="M59.37,59.7a20.91,20.91,0,0,1-.83,2c12.82-6.34,28.69-8.16,29.54-8.26a.76.76,0,0,1,.83.67.75.75,0,0,1-.66.83C88,55,70.1,57.05,57.12,64.21a12.83,12.83,0,0,1-1.32,1.56,17.6,17.6,0,0,1,5.52,2.92,20.18,20.18,0,0,1,6.21,7.55c15.2-1.6,29.06-17.94,27.32-24.07-1.5-3.26-9-5.74-17.44-5.74a36.45,36.45,0,0,0-17,3.9A22.77,22.77,0,0,1,59.37,59.7Z"></path><path xmlns="http://www.w3.org/2000/svg" d="M33.08,58.26c3.69,1.87,8.45,4.75,11.38,8.33,0-.26,0-.52,0-.78a11.6,11.6,0,0,1-1-4.1A12.72,12.72,0,0,0,38,56.65c-5.27-2.7-11.63-2.8-12.95-1.44-.74,1.38.78,6,4.49,9.85a14,14,0,0,0,8.08,4.38,10.17,10.17,0,0,1,5.46-2.15C40.31,64,35.87,61.35,32.4,59.6a.75.75,0,1,1,.68-1.34Z"></path><path xmlns="http://www.w3.org/2000/svg" d="M60.41,69.88a15.74,15.74,0,0,0-6-2.92,10.31,10.31,0,0,1-4.59,1.89,38.65,38.65,0,0,1,8.05,3.78A.75.75,0,0,1,57.5,74a.7.7,0,0,1-.39-.11A35.91,35.91,0,0,0,48.38,70,12,12,0,0,1,49,76.87a14.68,14.68,0,0,0,5,2.82c5.5,1.85,11.44,1.09,12.52-.39C67.11,77.79,64.83,73.25,60.41,69.88Z"></path><path xmlns="http://www.w3.org/2000/svg" d="M37.94,80.67a.75.75,0,0,1-.67.41.84.84,0,0,1-.34-.08.76.76,0,0,1-.33-1c1.86-3.63,4.71-8.3,8.24-11.2-5.47-.43-8.54,3.74-9.93,6.46-2.71,5.27-2.81,11.63-1.45,12.94,1.38.75,6-.77,9.85-4.48,2.65-2.59,6.47-7.81,3.16-14.29C42.83,72.07,39.85,76.94,37.94,80.67Z"></path><path xmlns="http://www.w3.org/2000/svg" d="M47.72,67.5c6.43.06,9.16-5.1,10.22-8.28,1.85-5.49,1.09-11.44-.39-12.52-1.5-.56-6,1.73-9.42,6.14-2.11,2.77-4.91,8-1.73,13.37a33.17,33.17,0,0,1,4.48-10.84.75.75,0,1,1,1.29.77C49.62,60.38,48.1,64.28,47.72,67.5Z"></path></g><g id="SvgjsG2713" featureKey="nameFeature-0" transform="matrix(1.081695258901423,0,0,1.081695258901423,-2.5960720771731203,97.01966308269284)" fill="#ffffff"><path d="M24.04 40.56 c-1.64 -0.12 -3.2 -0.48 -4.64 -1.28 c-2.16 -1.16 -3.72 -2.84 -4.64 -5.12 c-0.2 -0.44 -0.36 -0.88 -0.52 -1.36 c-0.12 -0.28 -0.24 -0.6 -0.36 -0.88 c-0.28 -0.52 -0.72 -0.84 -1.32 -0.92 c-0.24 0 -0.52 -0.04 -0.76 0 c-0.72 0.08 -1.32 0.64 -1.44 1.36 c-0.04 0.2 -0.08 0.44 -0.08 0.68 l0 1.16 l0 3.28 c-0.04 0.44 -0.04 0.84 -0.16 1.24 c-0.04 0.16 -0.08 0.32 -0.16 0.48 c-0.16 0.32 -0.44 0.52 -0.8 0.64 c-0.4 0.12 -0.8 0.16 -1.24 0.16 l-3.2 0 c-0.36 0 -0.76 -0.04 -1.12 -0.16 c-0.56 -0.16 -0.92 -0.52 -1.04 -1.04 c-0.08 -0.44 -0.12 -0.84 -0.16 -1.24 l0 -1.08 l0 -10.56 l0 -10.64 c0 -0.56 0 -1.16 0.12 -1.72 c0.04 -0.2 0.04 -0.4 0.12 -0.56 c0.16 -0.44 0.44 -0.72 0.88 -0.84 c0.24 -0.08 0.52 -0.12 0.76 -0.12 c0.28 -0.04 0.52 -0.04 0.8 -0.04 l7.92 0 c1.28 0 2.56 0.16 3.84 0.4 c0.92 0.16 1.84 0.44 2.68 0.8 c0.44 0.16 0.84 0.36 1.24 0.56 c1.16 0.56 2.08 1.4 2.84 2.4 c0.76 0.96 1.16 2.04 1.36 3.2 c0.08 0.36 0.12 0.76 0.16 1.12 c0 0.24 0.04 0.48 0 0.68 c-0.08 1.08 -0.24 2.12 -0.56 3.16 c-0.4 1.12 -1.04 2.12 -1.92 2.96 c-0.4 0.4 -0.84 0.72 -1.24 1.08 c-0.16 0.16 -0.36 0.32 -0.52 0.48 c-0.6 0.6 -0.72 1.32 -0.44 2.12 c0.28 0.72 0.8 1.24 1.44 1.64 c0.64 0.36 1.28 0.6 2 0.8 c0.32 0.08 0.68 0.16 1.04 0.24 c0.92 0.2 1.32 0.76 1.4 1.68 c0.04 0.16 0.04 0.32 0.04 0.48 l0 2.64 c0 0.28 -0.04 0.56 -0.08 0.84 c-0.12 0.56 -0.48 0.92 -1 1.12 c-0.4 0.12 -0.84 0.2 -1.24 0.16 z M11.96 25.72 c0.96 0.04 1.88 -0.16 2.72 -0.6 c0.72 -0.4 1.28 -0.96 1.72 -1.64 c0.08 -0.2 0.16 -0.36 0.24 -0.56 c0.64 -1.96 -0.2 -4 -2.12 -4.8 c-0.36 -0.16 -0.76 -0.28 -1.16 -0.4 c-0.56 -0.12 -1.08 -0.16 -1.64 -0.08 c-0.68 0.08 -1.12 0.44 -1.32 1.12 c-0.08 0.28 -0.12 0.6 -0.12 0.96 l0 1.92 l0 1.92 c0 0.28 0 0.52 0.08 0.76 c0.12 0.68 0.68 1.4 1.6 1.4 z M37.882999999999996 40 c-0.6 0 -1.16 0 -1.72 -0.16 c-0.32 -0.08 -0.56 -0.2 -0.76 -0.4 c-0.2 -0.24 -0.36 -0.48 -0.4 -0.76 c-0.04 -0.24 -0.08 -0.44 -0.08 -0.68 l0 -1.16 l0 -10.84 l0 -11 c0 -0.4 0 -0.84 0.04 -1.24 c0 -0.28 0.04 -0.52 0.12 -0.76 c0.16 -0.4 0.4 -0.68 0.8 -0.8 c0.32 -0.12 0.64 -0.16 0.96 -0.16 c0.36 -0.04 0.72 -0.04 1.04 -0.04 l13.56 0 c0.32 0 0.68 0 1.04 0.04 c0.28 0 0.52 0.04 0.76 0.12 c0.56 0.12 0.88 0.52 1 1.04 c0.04 0.2 0.08 0.4 0.08 0.6 l0 2.6 c0 0.16 -0.04 0.32 -0.04 0.48 c-0.12 0.68 -0.6 1.16 -1.28 1.24 c-0.24 0.04 -0.48 0.08 -0.68 0.08 l-1.16 0 l-5.32 0 c-0.36 0 -0.72 0 -1.08 0.04 c-0.32 0 -0.64 0.04 -0.92 0.16 c-0.48 0.16 -0.76 0.48 -0.96 0.92 c0 0.08 -0.04 0.16 -0.08 0.28 c-0.12 0.68 -0.12 1.4 -0.04 2.12 l0.12 0.36 c0.2 0.6 0.6 0.96 1.24 1.08 c0.32 0.08 0.64 0.08 0.96 0.08 l2.32 0 c0.48 0 0.96 0.04 1.44 0.12 c0.16 0.04 0.32 0.04 0.48 0.12 c0.4 0.12 0.72 0.4 0.84 0.84 c0.12 0.32 0.2 0.68 0.2 1.04 l0 2.12 c0 0.32 -0.08 0.64 -0.16 0.96 c-0.16 0.48 -0.48 0.76 -0.96 0.88 c-0.12 0.08 -0.28 0.08 -0.44 0.12 c-0.64 0.04 -1.28 0.12 -1.96 0.12 c-0.6 -0.04 -1.2 -0.04 -1.8 0 c-0.32 0 -0.6 0 -0.88 0.04 c-0.64 0.08 -1.04 0.48 -1.28 1.08 s-0.24 1.24 0 1.88 s0.64 1.04 1.36 1.08 c0.92 0.08 1.84 0.12 2.76 0.16 l4.64 0 c0.44 0 0.84 0 1.28 0.04 c0.24 0.04 0.48 0.08 0.72 0.24 c0.36 0.28 0.6 0.6 0.64 1.04 c0.04 0.16 0.04 0.32 0.04 0.48 l0 2.52 c0 0.2 -0.04 0.44 -0.08 0.68 c-0.12 0.52 -0.44 0.84 -0.92 1 c-0.36 0.12 -0.68 0.16 -1.04 0.16 c-0.28 0.04 -0.6 0.04 -0.88 0.04 l-13.52 0 z M75.451 39.9960156 c-1.0304 0.005586 -2.0614 0.0053516 -3.0918 -0.00023438 c-0.38719 -0.0019922 -0.77 -0.056796 -1.146 -0.1548 c-0.5448 -0.1416 -0.9092 -0.4772 -1.058 -1.0192 c-0.076016 -0.27762 -0.1232 -0.5664 -0.15121 -0.8532 c-0.028398 -0.28762 -0.021602 -0.57884 -0.022383 -0.86844 c-0.0019922 -1.1596 -0.00078124 -2.3188 -0.00078124 -3.4784 l-0.0019922 0 c0 -1.0628 0.0019922 -2.1252 -0.00082032 -3.188 c-0.0012109 -0.35442 -0.0040236 -0.7092 -0.025625 -1.0624 c-0.041992 -0.6816 -0.1952 -1.3368 -0.5076 -1.9496 c-0.2784 -0.5448 -0.5472 -1.0948 -0.8356 -1.634 c-0.8512 -1.5896 -1.7076 -3.1764 -2.5664 -4.762 c-0.5216 -0.9624 -1.0516 -1.9204 -1.5776 -2.8804 c-0.1084 -0.19801 -0.21602 -0.39602 -0.32242 -0.5948 c-0.4564 -0.8512 -0.9148 -1.7016 -1.3668 -2.5552 c-0.19558 -0.37 -0.3832 -0.7444 -0.5628 -1.1224 c-0.11121 -0.23398 -0.1684 -0.48476 -0.16762 -0.74796 c0.00078124 -0.4336 0.20719 -0.73596 0.592 -0.914 c0.14398 -0.066796 0.30238 -0.11641 0.45956 -0.13801 c0.25442 -0.034805 0.5128 -0.054412 0.7696 -0.056016 c1.1272 -0.0060156 2.2544 -0.0092188 3.3816 0 c0.32039 0.0023828 0.6424 0.037188 0.9608 0.08078 c0.7248 0.099608 1.2396 0.5096 1.588 1.1356 c0.15641 0.28078 0.29562 0.57276 0.4212 0.8688 c0.5284 1.2448 1.0484 2.4932 1.5716 3.7404 c0.24922 0.594 0.49364 1.1896 0.75004 1.7804 c0.11559 0.2652 0.24719 0.5244 0.38641 0.778 c0.12559 0.22879 0.30879 0.41 0.5268 0.5556 c0.25719 0.17121 0.65756 0.17199 0.91596 0.00039062 c0.21879 -0.1452 0.39558 -0.33039 0.51956 -0.56116 c0.091212 -0.17 0.1748 -0.3448 0.25039 -0.5224 c0.63 -1.4816 1.2572 -2.9644 1.8856 -4.4468 c0.25121 -0.5928 0.5032 -1.1856 0.7556 -1.778 c0.16641 -0.39039 0.4036 -0.7304 0.7148 -1.0212 c0.24078 -0.2252 0.5136 -0.38281 0.8336 -0.4648 c0.3452 -0.0884 0.6948 -0.14199 1.0504 -0.14277 c1.2236 -0.0032031 2.4476 -0.008008 3.6712 0.0035938 c0.28719 0.0028125 0.5768 0.052812 0.8596 0.10801 c0.15441 0.03 0.30801 0.1 0.4428 0.18281 c0.26281 0.16078 0.4216 0.4024 0.4132 0.7184 c-0.0048048 0.19078 -0.019609 0.39078 -0.081992 0.5684 c-0.10602 0.30238 -0.23562 0.59956 -0.38602 0.88276 c-0.7556 1.4216 -1.5184 2.8396 -2.2832 4.256 c-1.1324 2.0968 -2.2716 4.1896 -3.4012 6.2876 c-0.38199 0.7088 -0.738 1.4312 -1.1164 2.1416 c-0.4332 0.8128 -0.6604 1.672 -0.64756 2.5956 c0.0071876 0.5152 -0.0092188 1.0304 -0.0092188 1.546 c-0.0016016 1.9 -0.0016016 3.8 -0.00039062 5.7 c0 0.5812 -0.033594 1.1588 -0.15758 1.7284 c-0.0416 0.19039 -0.10641 0.3716 -0.21961 0.532 c-0.19238 0.2732 -0.45 0.4576 -0.7716 0.5484 c-0.4052 0.11398 -0.82 0.17438 -1.24 0.17676 z M97.32900000000001 40 c-0.4 0 -0.76 -0.08 -1.16 -0.16 c-0.52 -0.16 -0.92 -0.48 -1 -1.04 c-0.12 -0.44 -0.16 -0.84 -0.2 -1.24 l0 -0.88 l0 -21.36 c0 -0.72 0.04 -1.44 0.16 -2.12 c0.08 -0.36 0.28 -0.64 0.6 -0.84 c0.12 -0.12 0.28 -0.2 0.44 -0.2 c0.28 -0.08 0.56 -0.16 0.84 -0.16 l3.76 0 c0.28 0 0.6 0.08 0.88 0.16 c0.52 0.12 0.88 0.48 1.04 1.04 c0.08 0.28 0.12 0.6 0.12 0.92 c0.04 0.32 0.04 0.64 0.04 0.96 l0 5.32 c0 0.44 0 0.84 0.04 1.28 c0.04 0.36 0.2 0.68 0.44 0.96 c0.28 0.32 0.6 0.52 1.08 0.56 c0.24 0.04 0.48 0.04 0.76 0.04 l3.96 0 c0.28 0 0.56 0 0.88 -0.04 c0.76 -0.12 1.28 -0.6 1.44 -1.36 c0.04 -0.24 0.08 -0.44 0.08 -0.68 l0 -1.16 l0 -5.2 c0 -0.36 0.04 -0.72 0.04 -1.08 c0.04 -1 0.72 -1.64 1.64 -1.68 c0.2 0 0.4 -0.04 0.6 -0.04 l3.16 0 c0.32 0 0.64 0.04 0.96 0.08 c0.8 0.16 1.24 0.68 1.36 1.48 c0.04 0.32 0.04 0.68 0.04 1.04 l0 4.56 l0 6.76 l0 10.84 c0 0.44 0 0.88 -0.04 1.32 c0 0.28 -0.04 0.52 -0.12 0.76 c-0.16 0.52 -0.48 0.84 -1 1 c-0.4 0.08 -0.8 0.16 -1.24 0.16 l-3 0 c-0.32 0 -0.68 -0.08 -1.04 -0.12 c-0.76 -0.16 -1.2 -0.6 -1.28 -1.36 c-0.04 -0.28 -0.04 -0.52 -0.04 -0.8 c-0.04 -0.48 -0.04 -1 -0.04 -1.52 l0 -3.96 c0 -0.48 0 -0.96 -0.16 -1.44 c-0.12 -0.48 -0.4 -0.8 -0.8 -1.04 c-0.2 -0.08 -0.44 -0.12 -0.64 -0.16 c-0.24 -0.04 -0.48 -0.04 -0.68 -0.04 l-4.16 0 c-0.28 0 -0.6 0 -0.88 0.04 c-0.68 0.12 -1.08 0.52 -1.24 1.2 c-0.08 0.2 -0.08 0.44 -0.12 0.64 l0 1.08 l0 4.56 c0 0.32 -0.04 0.64 -0.04 0.96 s-0.08 0.64 -0.2 0.92 c-0.12 0.44 -0.44 0.72 -0.84 0.84 c-0.44 0.12 -0.84 0.2 -1.24 0.2 l-3.2 0 z M130.292 40 c-0.32 0 -0.64 -0.04 -0.96 -0.12 c-0.16 0 -0.32 -0.04 -0.48 -0.12 c-0.4 -0.16 -0.64 -0.48 -0.68 -0.96 c0 -0.2 0 -0.44 0.08 -0.68 c0.08 -0.4 0.2 -0.8 0.32 -1.2 c1.16 -3.4 2.28 -6.84 3.4 -10.28 c1 -2.96 1.96 -5.92 2.92 -8.88 c0.4 -1.16 0.76 -2.32 1.16 -3.48 c0.12 -0.36 0.24 -0.68 0.4 -1 c0.32 -0.76 0.92 -1.12 1.72 -1.24 c0.28 -0.04 0.56 -0.04 0.88 -0.04 l1.92 0 l3.76 0 c0.36 0 0.72 0.04 1.08 0.08 c0.68 0.08 1.2 0.44 1.52 1.04 c0.16 0.36 0.32 0.68 0.44 1.08 c0.44 1.2 0.8 2.44 1.2 3.64 c0.44 1.28 0.84 2.52 1.24 3.76 c0.88 2.72 1.8 5.4 2.68 8.08 c0.8 2.44 1.6 4.92 2.4 7.36 c0.12 0.32 0.2 0.68 0.28 1.04 c0.08 0.2 0.08 0.44 0.12 0.64 c0 0.48 -0.28 0.88 -0.72 1.04 c-0.36 0.16 -0.68 0.2 -1.04 0.2 c-0.44 0.04 -0.84 0.04 -1.28 0.04 l-0.76 0 l-1.56 0 c-0.32 -0.04 -0.68 -0.08 -1.04 -0.12 c-0.76 -0.12 -1.28 -0.56 -1.56 -1.28 c-0.12 -0.28 -0.24 -0.6 -0.32 -0.88 c-0.12 -0.36 -0.24 -0.68 -0.36 -1 c-0.36 -0.84 -0.96 -1.36 -1.88 -1.44 c-0.32 -0.04 -0.6 -0.04 -0.88 -0.04 l-4.64 0 c-0.44 0 -0.84 0 -1.24 0.08 c-0.68 0.12 -1.12 0.48 -1.44 1.04 c-0.24 0.4 -0.36 0.84 -0.52 1.28 c-0.08 0.32 -0.2 0.68 -0.32 1 c-0.12 0.24 -0.24 0.44 -0.44 0.64 c-0.24 0.28 -0.56 0.48 -0.96 0.56 c-0.4 0.12 -0.84 0.16 -1.24 0.16 l-3.2 0 z M141.812 29.64 c0.44 -0.04 0.8 -0.04 1.16 -0.04 c0.28 -0.04 0.56 -0.08 0.84 -0.2 c0.4 -0.2 0.68 -0.48 0.72 -0.96 c0.04 -0.4 -0.04 -0.84 -0.12 -1.24 l-0.48 -1.68 c-0.28 -0.96 -0.56 -1.88 -0.84 -2.84 c-0.08 -0.32 -0.2 -0.64 -0.32 -0.92 c-0.08 -0.16 -0.2 -0.32 -0.32 -0.48 c-0.36 -0.4 -0.76 -0.4 -1.08 0 c-0.12 0.2 -0.24 0.4 -0.32 0.6 c-0.16 0.32 -0.28 0.64 -0.36 1 c-0.4 1.4 -0.8 2.76 -1.2 4.16 c-0.04 0.24 -0.12 0.44 -0.12 0.68 c-0.04 0.2 -0.04 0.44 -0.04 0.64 c0 0.32 0.16 0.56 0.36 0.76 c0.28 0.28 0.6 0.4 0.96 0.44 c0.4 0.04 0.84 0.04 1.16 0.08 z M166.93500000000003 40 c-0.32 0 -0.64 -0.08 -0.96 -0.12 l-0.48 -0.12 c-0.4 -0.16 -0.68 -0.48 -0.8 -0.92 c-0.08 -0.32 -0.16 -0.68 -0.16 -1.04 l0 -1.08 l0 -10.72 l0 -10.72 l0 -1.04 s0.08 -0.72 0.16 -1.08 c0.16 -0.56 0.56 -0.92 1.12 -1.04 c0.16 -0.04 0.32 -0.08 0.48 -0.08 c0.28 0 0.52 -0.04 0.8 -0.04 l3.36 0 c0.32 0 0.64 0.04 0.96 0.04 c0.84 0.12 1.48 0.52 1.88 1.24 c0.12 0.28 0.24 0.52 0.36 0.8 c0.92 2.08 1.8 4.2 2.72 6.28 c0.56 1.28 1.12 2.56 1.68 3.8 c0.16 0.4 0.36 0.76 0.56 1.12 c0.16 0.28 0.32 0.48 0.56 0.64 s0.56 0.08 0.68 -0.12 c0.08 -0.12 0.12 -0.24 0.16 -0.36 c0.12 -0.32 0.16 -0.68 0.16 -1.04 c0.04 -0.72 0.04 -1.44 0.04 -2.12 l0 -6.96 l0 -0.96 c0.04 -0.4 0.08 -0.8 0.16 -1.16 c0.12 -0.56 0.48 -0.88 1.04 -1.04 c0.28 -0.08 0.56 -0.12 0.84 -0.12 c1 -0.04 2 -0.04 3 0 c0.28 0 0.6 0.04 0.88 0.12 c0.52 0.16 0.88 0.52 1 1.08 c0.08 0.36 0.12 0.76 0.12 1.12 c0.04 0.32 0.04 0.64 0.04 1 l0 21.24 c0 0.36 0 0.72 -0.04 1.04 c0 0.44 -0.04 0.84 -0.16 1.24 c-0.16 0.44 -0.44 0.72 -0.84 0.88 c-0.36 0.16 -0.68 0.2 -1.04 0.2 c-1.48 0.04 -2.96 0.04 -4.44 0 c-0.24 0 -0.44 -0.04 -0.68 -0.08 c-0.68 -0.12 -1.2 -0.48 -1.56 -1.04 c-0.16 -0.28 -0.28 -0.52 -0.4 -0.8 c-0.32 -0.68 -0.64 -1.4 -0.96 -2.08 c-0.6 -1.36 -1.2 -2.72 -1.84 -4.08 c-0.36 -0.84 -0.76 -1.68 -1.12 -2.52 c-0.24 -0.52 -0.48 -1 -0.72 -1.52 c-0.2 -0.4 -0.48 -0.76 -0.8 -1.08 c-0.2 -0.2 -0.56 -0.16 -0.76 0.08 c-0.16 0.24 -0.2 0.48 -0.24 0.72 c-0.08 0.8 -0.2 1.6 -0.16 2.4 l0 2.64 c-0.04 1.6 0 3.2 -0.04 4.8 c0 0.4 0 0.8 -0.04 1.16 c-0.08 0.64 -0.52 1.16 -1.16 1.28 c-0.32 0.08 -0.68 0.12 -1.04 0.16 l-2.32 0 z"></path></g><g id="SvgjsG2714" featureKey="nameFeature-1" transform="matrix(0.6507887944290509,0,0,0.6507887944290509,-1.5618951857755936,143.5547902726459)" fill="#ffffff"><path d="M24.04 40.56 c-1.64 -0.12 -3.2 -0.48 -4.64 -1.28 c-2.16 -1.16 -3.72 -2.84 -4.64 -5.12 c-0.2 -0.44 -0.36 -0.88 -0.52 -1.36 c-0.12 -0.28 -0.24 -0.6 -0.36 -0.88 c-0.28 -0.52 -0.72 -0.84 -1.32 -0.92 c-0.24 0 -0.52 -0.04 -0.76 0 c-0.72 0.08 -1.32 0.64 -1.44 1.36 c-0.04 0.2 -0.08 0.44 -0.08 0.68 l0 1.16 l0 3.28 c-0.04 0.44 -0.04 0.84 -0.16 1.24 c-0.04 0.16 -0.08 0.32 -0.16 0.48 c-0.16 0.32 -0.44 0.52 -0.8 0.64 c-0.4 0.12 -0.8 0.16 -1.24 0.16 l-3.2 0 c-0.36 0 -0.76 -0.04 -1.12 -0.16 c-0.56 -0.16 -0.92 -0.52 -1.04 -1.04 c-0.08 -0.44 -0.12 -0.84 -0.16 -1.24 l0 -1.08 l0 -10.56 l0 -10.64 c0 -0.56 0 -1.16 0.12 -1.72 c0.04 -0.2 0.04 -0.4 0.12 -0.56 c0.16 -0.44 0.44 -0.72 0.88 -0.84 c0.24 -0.08 0.52 -0.12 0.76 -0.12 c0.28 -0.04 0.52 -0.04 0.8 -0.04 l7.92 0 c1.28 0 2.56 0.16 3.84 0.4 c0.92 0.16 1.84 0.44 2.68 0.8 c0.44 0.16 0.84 0.36 1.24 0.56 c1.16 0.56 2.08 1.4 2.84 2.4 c0.76 0.96 1.16 2.04 1.36 3.2 c0.08 0.36 0.12 0.76 0.16 1.12 c0 0.24 0.04 0.48 0 0.68 c-0.08 1.08 -0.24 2.12 -0.56 3.16 c-0.4 1.12 -1.04 2.12 -1.92 2.96 c-0.4 0.4 -0.84 0.72 -1.24 1.08 c-0.16 0.16 -0.36 0.32 -0.52 0.48 c-0.6 0.6 -0.72 1.32 -0.44 2.12 c0.28 0.72 0.8 1.24 1.44 1.64 c0.64 0.36 1.28 0.6 2 0.8 c0.32 0.08 0.68 0.16 1.04 0.24 c0.92 0.2 1.32 0.76 1.4 1.68 c0.04 0.16 0.04 0.32 0.04 0.48 l0 2.64 c0 0.28 -0.04 0.56 -0.08 0.84 c-0.12 0.56 -0.48 0.92 -1 1.12 c-0.4 0.12 -0.84 0.2 -1.24 0.16 z M11.96 25.72 c0.96 0.04 1.88 -0.16 2.72 -0.6 c0.72 -0.4 1.28 -0.96 1.72 -1.64 c0.08 -0.2 0.16 -0.36 0.24 -0.56 c0.64 -1.96 -0.2 -4 -2.12 -4.8 c-0.36 -0.16 -0.76 -0.28 -1.16 -0.4 c-0.56 -0.12 -1.08 -0.16 -1.64 -0.08 c-0.68 0.08 -1.12 0.44 -1.32 1.12 c-0.08 0.28 -0.12 0.6 -0.12 0.96 l0 1.92 l0 1.92 c0 0.28 0 0.52 0.08 0.76 c0.12 0.68 0.68 1.4 1.6 1.4 z M37.882999999999996 40 c-0.6 0 -1.16 0 -1.72 -0.16 c-0.32 -0.08 -0.56 -0.2 -0.76 -0.4 c-0.2 -0.24 -0.36 -0.48 -0.4 -0.76 c-0.04 -0.24 -0.08 -0.44 -0.08 -0.68 l0 -1.16 l0 -10.84 l0 -11 c0 -0.4 0 -0.84 0.04 -1.24 c0 -0.28 0.04 -0.52 0.12 -0.76 c0.16 -0.4 0.4 -0.68 0.8 -0.8 c0.32 -0.12 0.64 -0.16 0.96 -0.16 c0.36 -0.04 0.72 -0.04 1.04 -0.04 l13.56 0 c0.32 0 0.68 0 1.04 0.04 c0.28 0 0.52 0.04 0.76 0.12 c0.56 0.12 0.88 0.52 1 1.04 c0.04 0.2 0.08 0.4 0.08 0.6 l0 2.6 c0 0.16 -0.04 0.32 -0.04 0.48 c-0.12 0.68 -0.6 1.16 -1.28 1.24 c-0.24 0.04 -0.48 0.08 -0.68 0.08 l-1.16 0 l-5.32 0 c-0.36 0 -0.72 0 -1.08 0.04 c-0.32 0 -0.64 0.04 -0.92 0.16 c-0.48 0.16 -0.76 0.48 -0.96 0.92 c0 0.08 -0.04 0.16 -0.08 0.28 c-0.12 0.68 -0.12 1.4 -0.04 2.12 l0.12 0.36 c0.2 0.6 0.6 0.96 1.24 1.08 c0.32 0.08 0.64 0.08 0.96 0.08 l2.32 0 c0.48 0 0.96 0.04 1.44 0.12 c0.16 0.04 0.32 0.04 0.48 0.12 c0.4 0.12 0.72 0.4 0.84 0.84 c0.12 0.32 0.2 0.68 0.2 1.04 l0 2.12 c0 0.32 -0.08 0.64 -0.16 0.96 c-0.16 0.48 -0.48 0.76 -0.96 0.88 c-0.12 0.08 -0.28 0.08 -0.44 0.12 c-0.64 0.04 -1.28 0.12 -1.96 0.12 c-0.6 -0.04 -1.2 -0.04 -1.8 0 c-0.32 0 -0.6 0 -0.88 0.04 c-0.64 0.08 -1.04 0.48 -1.28 1.08 s-0.24 1.24 0 1.88 s0.64 1.04 1.36 1.08 c0.92 0.08 1.84 0.12 2.76 0.16 l4.64 0 c0.44 0 0.84 0 1.28 0.04 c0.24 0.04 0.48 0.08 0.72 0.24 c0.36 0.28 0.6 0.6 0.64 1.04 c0.04 0.16 0.04 0.32 0.04 0.48 l0 2.52 c0 0.2 -0.04 0.44 -0.08 0.68 c-0.12 0.52 -0.44 0.84 -0.92 1 c-0.36 0.12 -0.68 0.16 -1.04 0.16 c-0.28 0.04 -0.6 0.04 -0.88 0.04 l-13.52 0 z M70.1172 40.5564 c-0.9032 0.028008 -1.7963 -0.10961 -2.6867 -0.2384 c-0.954 -0.1384 -1.9 -0.33719 -2.848 -0.5172 c-0.38 -0.071992 -0.7516 -0.17801 -1.106 -0.33602 c-0.20762 -0.092812 -0.39363 -0.21562 -0.55524 -0.37801 c-0.2132 -0.21442 -0.33442 -0.4676 -0.35363 -0.7708 c-0.018398 -0.29121 -0.0032031 -0.5792 0.078788 -0.86044 c0.2168 -0.7432 0.488 -1.4652 0.8468 -2.152 c0.05922 -0.1132 0.13203 -0.22199 0.21324 -0.32078 c0.30121 -0.36719 0.6868 -0.57116 1.1672 -0.5904 c0.35762 -0.013984 0.70524 0.042812 1.0516 0.12121 c0.502 0.1132 1.002 0.2368 1.5072 0.3352 c0.4732 0.092384 0.9508 0.16558 1.4284 0.23277 c0.8376 0.1184 1.6692 0.0584 2.494 -0.1184 c0.4104 -0.0884 0.8032 -0.22879 1.1824 -0.41116 c0.4744 -0.22762 0.8612 -0.5628 1.1824 -0.97244 c0.58 -0.74 0.5664 -1.7736 -0.033594 -2.4968 c-0.33039 -0.39801 -0.718 -0.73404 -1.1596 -1.01 c-0.602 -0.3768 -1.2412 -0.6788 -1.8816 -0.9808 c-0.6984 -0.32922 -1.3972 -0.6576 -2.0932 -0.9912 c-0.6684 -0.32039 -1.3016 -0.7024 -1.9268 -1.0996 c-0.7652 -0.4868 -1.4576 -1.0568 -2.0756 -1.7192 c-1.2596 -1.3504 -1.9228 -2.9412 -1.9636 -4.7952 c-0.028789 -1.3156 0.27281 -2.5548 0.8152 -3.7392 c0.5052 -1.1028 1.2656 -2.0116 2.21 -2.7648 c1.176 -0.938 2.5192 -1.5428 3.9604 -1.938 c0.7768 -0.2132 1.5656 -0.37039 2.3688 -0.4476 c0.608 -0.058008 1.2116 -0.1552 1.826 -0.1568 c1.2312 -0.0032031 2.4352 0.19801 3.6296 0.4664 c0.5016 0.11238 0.9968 0.25797 1.4888 0.40956 c0.30641 0.094412 0.6028 0.22281 0.9 0.3452 c0.11801 0.0484 0.23039 0.1152 0.33758 0.18558 c0.6928 0.4528 0.9276 1.0352 0.686 1.8268 c-0.1684 0.5528 -0.3916 1.0892 -0.5984 1.63 c-0.045196 0.11879 -0.11598 0.23 -0.18719 0.33641 c-0.3732 0.5556 -0.88244 0.83956 -1.5616 0.7324 c-0.34879 -0.054804 -0.6948 -0.13281 -1.0368 -0.22121 c-0.7176 -0.18558 -1.4404 -0.33879 -2.1756 -0.434 c-0.7408 -0.096016 -1.4776 -0.084412 -2.2056 0.0916 c-0.24961 0.060392 -0.4948 0.14039 -0.7372 0.22598 c-0.4672 0.16442 -0.84436 0.4584 -1.1616 0.8348 c-0.518 0.616 -0.62084 1.5592 -0.23043 2.264 c0.092384 0.1668 0.21476 0.32039 0.34195 0.464 c0.4108 0.4624 0.8988 0.8272 1.4552 1.0972 c0.8968 0.4356 1.7924 0.8748 2.6948 1.2996 c1.2244 0.576 2.4148 1.212 3.5384 1.968 c0.8356 0.562 1.56 1.254 2.178 2.0368 c0.858 1.0876 1.3096 2.3476 1.3836 3.7416 c0.063984 1.21 -0.13203 2.3716 -0.57324 3.496 c-0.3448 0.8788 -0.828 1.6696 -1.4892 2.3476 c-0.15762 0.16121 -0.31641 0.32043 -0.4736 0.48204 c-1.0036 1.0324 -2.1956 1.7632 -3.532 2.2936 c-1.4796 0.5872 -3.0092 0.9236 -4.5864 1.0828 c-0.5764 0.0584 -1.1508 0.13039 -1.734 0.1132 z M99.573 39.995586 c-0.4196 -0.0032031 -0.8366 -0.056796 -1.2422 -0.1684 c-0.506 -0.13879 -0.83884 -0.47596 -0.9944 -0.96676 c-0.076796 -0.24199 -0.10719 -0.50436 -0.12117 -0.75956 c-0.022812 -0.418 -0.02 -0.8376 -0.02 -1.2564 c-0.0012109 -5.0272 -0.00042968 -10.054 -0.0016406 -15.082 c0 -0.4836 0 -0.9672 -0.019609 -1.45 c-0.010781 -0.25602 -0.037188 -0.51724 -0.1032 -0.76364 c-0.16238 -0.6036 -0.5436 -1.0108 -1.1556 -1.188 c-0.3752 -0.1084 -0.7588 -0.14559 -1.1468 -0.14879 c-0.612 -0.0051952 -1.2244 -0.0035938 -1.8368 -0.0071876 c-0.35442 -0.0023828 -0.7092 -0.0023828 -1.0632 -0.018789 c-0.22442 -0.010391 -0.4528 -0.028008 -0.67 -0.080392 c-0.6188 -0.14922 -1.0316 -0.52564 -1.146 -1.1664 c-0.21641 -1.2168 -0.21719 -2.4372 -0.0059764 -3.6552 c0.10441 -0.6004 0.4716 -0.98116 1.0496 -1.1392 c0.2768 -0.075588 0.5696 -0.10797 0.85724 -0.12598 c0.38558 -0.023594 0.7732 -0.018008 1.16 -0.018008 c2.6748 -0.0012109 5.3492 -0.00042968 8.024 -0.00042968 s5.3496 -0.00078124 8.0244 0.00082032 c0.3868 0 0.7748 -0.0060156 1.1596 0.023203 c0.2868 0.021992 0.5788 0.066796 0.8524 0.15238 c0.458 0.1432 0.7644 0.4664 0.9152 0.9248 c0.11199 0.33879 0.1616 0.69116 0.1652 1.0468 c0.0067968 0.6764 0.014414 1.3536 -0.0051952 2.0296 c-0.008008 0.2868 -0.053592 0.58 -0.13359 0.8556 c-0.16558 0.5712 -0.5556 0.94244 -1.138 1.0676 c-0.31238 0.067188 -0.6384 0.086408 -0.9592 0.093592 c-0.6764 0.015195 -1.3532 0.0071876 -2.03 0.011172 c-0.29 0.0016016 -0.5808 -0.004414 -0.86956 0.017578 c-0.25558 0.019609 -0.5156 0.0484 -0.762 0.11602 c-0.6812 0.18719 -1.1192 0.62916 -1.244 1.3316 c-0.072812 0.4112 -0.10402 0.8308 -0.12961 1.2484 c-0.021602 0.3532 -0.0087892 0.7084 -0.0087892 1.0628 c0 4.9308 0 9.8616 -0.0012109 14.792 c0 0.4512 -0.00078124 0.90244 -0.02 1.3532 c-0.0096092 0.22359 -0.034805 0.4532 -0.098788 0.6668 c-0.15801 0.5284 -0.5004 0.8924 -1.0412 1.048 c-0.34281 0.098788 -0.6944 0.15 -1.05 0.15199 c-1.0632 0.005586 -2.1268 0.0079688 -3.19 0.00078124 z M121.412 40 c-0.32 0 -0.64 -0.04 -0.96 -0.12 c-0.16 0 -0.32 -0.04 -0.48 -0.12 c-0.4 -0.16 -0.64 -0.48 -0.68 -0.96 c0 -0.2 0 -0.44 0.08 -0.68 c0.08 -0.4 0.2 -0.8 0.32 -1.2 c1.16 -3.4 2.28 -6.84 3.4 -10.28 c1 -2.96 1.96 -5.92 2.92 -8.88 c0.4 -1.16 0.76 -2.32 1.16 -3.48 c0.12 -0.36 0.24 -0.68 0.4 -1 c0.32 -0.76 0.92 -1.12 1.72 -1.24 c0.28 -0.04 0.56 -0.04 0.88 -0.04 l1.92 0 l3.76 0 c0.36 0 0.72 0.04 1.08 0.08 c0.68 0.08 1.2 0.44 1.52 1.04 c0.16 0.36 0.32 0.68 0.44 1.08 c0.44 1.2 0.8 2.44 1.2 3.64 c0.44 1.28 0.84 2.52 1.24 3.76 c0.88 2.72 1.8 5.4 2.68 8.08 c0.8 2.44 1.6 4.92 2.4 7.36 c0.12 0.32 0.2 0.68 0.28 1.04 c0.08 0.2 0.08 0.44 0.12 0.64 c0 0.48 -0.28 0.88 -0.72 1.04 c-0.36 0.16 -0.68 0.2 -1.04 0.2 c-0.44 0.04 -0.84 0.04 -1.28 0.04 l-0.76 0 l-1.56 0 c-0.32 -0.04 -0.68 -0.08 -1.04 -0.12 c-0.76 -0.12 -1.28 -0.56 -1.56 -1.28 c-0.12 -0.28 -0.24 -0.6 -0.32 -0.88 c-0.12 -0.36 -0.24 -0.68 -0.36 -1 c-0.36 -0.84 -0.96 -1.36 -1.88 -1.44 c-0.32 -0.04 -0.6 -0.04 -0.88 -0.04 l-4.64 0 c-0.44 0 -0.84 0 -1.24 0.08 c-0.68 0.12 -1.12 0.48 -1.44 1.04 c-0.24 0.4 -0.36 0.84 -0.52 1.28 c-0.08 0.32 -0.2 0.68 -0.32 1 c-0.12 0.24 -0.24 0.44 -0.44 0.64 c-0.24 0.28 -0.56 0.48 -0.96 0.56 c-0.4 0.12 -0.84 0.16 -1.24 0.16 l-3.2 0 z M132.932 29.64 c0.44 -0.04 0.8 -0.04 1.16 -0.04 c0.28 -0.04 0.56 -0.08 0.84 -0.2 c0.4 -0.2 0.68 -0.48 0.72 -0.96 c0.04 -0.4 -0.04 -0.84 -0.12 -1.24 l-0.48 -1.68 c-0.28 -0.96 -0.56 -1.88 -0.84 -2.84 c-0.08 -0.32 -0.2 -0.64 -0.32 -0.92 c-0.08 -0.16 -0.2 -0.32 -0.32 -0.48 c-0.36 -0.4 -0.76 -0.4 -1.08 0 c-0.12 0.2 -0.24 0.4 -0.32 0.6 c-0.16 0.32 -0.28 0.64 -0.36 1 c-0.4 1.4 -0.8 2.76 -1.2 4.16 c-0.04 0.24 -0.12 0.44 -0.12 0.68 c-0.04 0.2 -0.04 0.44 -0.04 0.64 c0 0.32 0.16 0.56 0.36 0.76 c0.28 0.28 0.6 0.4 0.96 0.44 c0.4 0.04 0.84 0.04 1.16 0.08 z M165.535 40.5072 c-1.556 -0.12922 -3.0737 -0.45596 -4.5012 -1.112 c-1.8716 -0.8596 -3.3884 -2.1308 -4.4268 -3.9296 c-0.7556 -1.3088 -1.1944 -2.7236 -1.292 -4.2324 c-0.050392 -0.7744 -0.053592 -1.552 -0.056408 -2.3284 c-0.0067968 -2.1352 -0.0023828 -4.2704 -0.0023828 -6.4056 l0 0 l0 -7.2792 c0 -0.35602 0 -0.7116 0.0076172 -1.0676 c0.0048048 -0.22602 0.012422 -0.4532 0.039219 -0.6776 c0.096408 -0.8156 0.5372 -1.2732 1.3608 -1.4104 c0.22238 -0.037188 0.45 -0.059572 0.6756 -0.060352 c1.2292 -0.0051952 2.4584 -0.0051952 3.688 0.0019922 c0.2248 0.0012109 0.45404 0.022812 0.67404 0.0684 c0.624 0.13 1.0388 0.498 1.2084 1.1228 c0.093592 0.3452 0.1384 0.698 0.14398 1.0552 c0.005586 0.35558 0.0083984 0.7116 0.0083984 1.0676 c0.00078124 4.432 -0.00042968 8.8644 0.0019531 13.296 c0 0.6472 0.010391 1.2944 0.027578 1.9408 c0.018398 0.6848 0.16121 1.3484 0.39043 1.9924 c0.1532 0.4292 0.36 0.82884 0.6644 1.1752 c0.5852 0.6664 1.3384 1.0008 2.198 1.1208 c0.38641 0.053984 0.7744 0.027578 1.1596 -0.038828 c1.1792 -0.20199 1.9836 -0.89436 2.51 -1.936 c0.24961 -0.494 0.39641 -1.024 0.44564 -1.5788 c0.085588 -0.9668 0.16078 -1.9324 0.1584 -2.9052 c-0.010781 -4.4324 -0.0051952 -8.8648 -0.0035938 -13.297 c0 -0.4528 0.008008 -0.906 0.021992 -1.3584 c0.008008 -0.25922 0.046796 -0.51564 0.1448 -0.7592 c0.15359 -0.38121 0.42 -0.6496 0.8088 -0.7844 c0.3384 -0.11719 0.6912 -0.1784 1.0484 -0.17961 c1.2616 -0.0051952 2.5232 -0.0071876 3.7848 0.0048048 c0.25558 0.0028125 0.5172 0.047616 0.7648 0.1148 c0.6564 0.1784 1.0464 0.6188 1.1648 1.2876 c0.039219 0.2216 0.050428 0.45 0.057616 0.6756 c0.011211 0.35558 0.01 0.7116 0.01 1.0676 c0 4.4644 0.00078124 8.9292 -0.00082032 13.394 c0 0.6148 0.005586 1.23 -0.021602 1.844 c-0.056016 1.2676 -0.26801 2.5084 -0.7232 3.6988 c-0.4324 1.1304 -1.0468 2.142 -1.9016 3.0128 c-0.7536 0.7676 -1.5612 1.452 -2.5156 1.9588 c-0.8624 0.4584 -1.768 0.7988 -2.714 1.0328 c-1.6468 0.4076 -3.3208 0.548 -5.0088 0.4076 z M210.25799999999998 40.56 c-1.64 -0.12 -3.2 -0.48 -4.64 -1.28 c-2.16 -1.16 -3.72 -2.84 -4.64 -5.12 c-0.2 -0.44 -0.36 -0.88 -0.52 -1.36 c-0.12 -0.28 -0.24 -0.6 -0.36 -0.88 c-0.28 -0.52 -0.72 -0.84 -1.32 -0.92 c-0.24 0 -0.52 -0.04 -0.76 0 c-0.72 0.08 -1.32 0.64 -1.44 1.36 c-0.04 0.2 -0.08 0.44 -0.08 0.68 l0 1.16 l0 3.28 c-0.04 0.44 -0.04 0.84 -0.16 1.24 c-0.04 0.16 -0.08 0.32 -0.16 0.48 c-0.16 0.32 -0.44 0.52 -0.8 0.64 c-0.4 0.12 -0.8 0.16 -1.24 0.16 l-3.2 0 c-0.36 0 -0.76 -0.04 -1.12 -0.16 c-0.56 -0.16 -0.92 -0.52 -1.04 -1.04 c-0.08 -0.44 -0.12 -0.84 -0.16 -1.24 l0 -1.08 l0 -10.56 l0 -10.64 c0 -0.56 0 -1.16 0.12 -1.72 c0.04 -0.2 0.04 -0.4 0.12 -0.56 c0.16 -0.44 0.44 -0.72 0.88 -0.84 c0.24 -0.08 0.52 -0.12 0.76 -0.12 c0.28 -0.04 0.52 -0.04 0.8 -0.04 l7.92 0 c1.28 0 2.56 0.16 3.84 0.4 c0.92 0.16 1.84 0.44 2.68 0.8 c0.44 0.16 0.84 0.36 1.24 0.56 c1.16 0.56 2.08 1.4 2.84 2.4 c0.76 0.96 1.16 2.04 1.36 3.2 c0.08 0.36 0.12 0.76 0.16 1.12 c0 0.24 0.04 0.48 0 0.68 c-0.08 1.08 -0.24 2.12 -0.56 3.16 c-0.4 1.12 -1.04 2.12 -1.92 2.96 c-0.4 0.4 -0.84 0.72 -1.24 1.08 c-0.16 0.16 -0.36 0.32 -0.52 0.48 c-0.6 0.6 -0.72 1.32 -0.44 2.12 c0.28 0.72 0.8 1.24 1.44 1.64 c0.64 0.36 1.28 0.6 2 0.8 c0.32 0.08 0.68 0.16 1.04 0.24 c0.92 0.2 1.32 0.76 1.4 1.68 c0.04 0.16 0.04 0.32 0.04 0.48 l0 2.64 c0 0.28 -0.04 0.56 -0.08 0.84 c-0.12 0.56 -0.48 0.92 -1 1.12 c-0.4 0.12 -0.84 0.2 -1.24 0.16 z M198.178 25.72 c0.96 0.04 1.88 -0.16 2.72 -0.6 c0.72 -0.4 1.28 -0.96 1.72 -1.64 c0.08 -0.2 0.16 -0.36 0.24 -0.56 c0.64 -1.96 -0.2 -4 -2.12 -4.8 c-0.36 -0.16 -0.76 -0.28 -1.16 -0.4 c-0.56 -0.12 -1.08 -0.16 -1.64 -0.08 c-0.68 0.08 -1.12 0.44 -1.32 1.12 c-0.08 0.28 -0.12 0.6 -0.12 0.96 l0 1.92 l0 1.92 c0 0.28 0 0.52 0.08 0.76 c0.12 0.68 0.68 1.4 1.6 1.4 z M221.50099999999998 40 c-0.32 0 -0.64 -0.04 -0.96 -0.12 c-0.16 0 -0.32 -0.04 -0.48 -0.12 c-0.4 -0.16 -0.64 -0.48 -0.68 -0.96 c0 -0.2 0 -0.44 0.08 -0.68 c0.08 -0.4 0.2 -0.8 0.32 -1.2 c1.16 -3.4 2.28 -6.84 3.4 -10.28 c1 -2.96 1.96 -5.92 2.92 -8.88 c0.4 -1.16 0.76 -2.32 1.16 -3.48 c0.12 -0.36 0.24 -0.68 0.4 -1 c0.32 -0.76 0.92 -1.12 1.72 -1.24 c0.28 -0.04 0.56 -0.04 0.88 -0.04 l1.92 0 l3.76 0 c0.36 0 0.72 0.04 1.08 0.08 c0.68 0.08 1.2 0.44 1.52 1.04 c0.16 0.36 0.32 0.68 0.44 1.08 c0.44 1.2 0.8 2.44 1.2 3.64 c0.44 1.28 0.84 2.52 1.24 3.76 c0.88 2.72 1.8 5.4 2.68 8.08 c0.8 2.44 1.6 4.92 2.4 7.36 c0.12 0.32 0.2 0.68 0.28 1.04 c0.08 0.2 0.08 0.44 0.12 0.64 c0 0.48 -0.28 0.88 -0.72 1.04 c-0.36 0.16 -0.68 0.2 -1.04 0.2 c-0.44 0.04 -0.84 0.04 -1.28 0.04 l-0.76 0 l-1.56 0 c-0.32 -0.04 -0.68 -0.08 -1.04 -0.12 c-0.76 -0.12 -1.28 -0.56 -1.56 -1.28 c-0.12 -0.28 -0.24 -0.6 -0.32 -0.88 c-0.12 -0.36 -0.24 -0.68 -0.36 -1 c-0.36 -0.84 -0.96 -1.36 -1.88 -1.44 c-0.32 -0.04 -0.6 -0.04 -0.88 -0.04 l-4.64 0 c-0.44 0 -0.84 0 -1.24 0.08 c-0.68 0.12 -1.12 0.48 -1.44 1.04 c-0.24 0.4 -0.36 0.84 -0.52 1.28 c-0.08 0.32 -0.2 0.68 -0.32 1 c-0.12 0.24 -0.24 0.44 -0.44 0.64 c-0.24 0.28 -0.56 0.48 -0.96 0.56 c-0.4 0.12 -0.84 0.16 -1.24 0.16 l-3.2 0 z M233.021 29.64 c0.44 -0.04 0.8 -0.04 1.16 -0.04 c0.28 -0.04 0.56 -0.08 0.84 -0.2 c0.4 -0.2 0.68 -0.48 0.72 -0.96 c0.04 -0.4 -0.04 -0.84 -0.12 -1.24 l-0.48 -1.68 c-0.28 -0.96 -0.56 -1.88 -0.84 -2.84 c-0.08 -0.32 -0.2 -0.64 -0.32 -0.92 c-0.08 -0.16 -0.2 -0.32 -0.32 -0.48 c-0.36 -0.4 -0.76 -0.4 -1.08 0 c-0.12 0.2 -0.24 0.4 -0.32 0.6 c-0.16 0.32 -0.28 0.64 -0.36 1 c-0.4 1.4 -0.8 2.76 -1.2 4.16 c-0.04 0.24 -0.12 0.44 -0.12 0.68 c-0.04 0.2 -0.04 0.44 -0.04 0.64 c0 0.32 0.16 0.56 0.36 0.76 c0.28 0.28 0.6 0.4 0.96 0.44 c0.4 0.04 0.84 0.04 1.16 0.08 z M258.144 40 c-0.32 0 -0.64 -0.08 -0.96 -0.12 l-0.48 -0.12 c-0.4 -0.16 -0.68 -0.48 -0.8 -0.92 c-0.08 -0.32 -0.16 -0.68 -0.16 -1.04 l0 -1.08 l0 -10.72 l0 -10.72 l0 -1.04 s0.08 -0.72 0.16 -1.08 c0.16 -0.56 0.56 -0.92 1.12 -1.04 c0.16 -0.04 0.32 -0.08 0.48 -0.08 c0.28 0 0.52 -0.04 0.8 -0.04 l3.36 0 c0.32 0 0.64 0.04 0.96 0.04 c0.84 0.12 1.48 0.52 1.88 1.24 c0.12 0.28 0.24 0.52 0.36 0.8 c0.92 2.08 1.8 4.2 2.72 6.28 c0.56 1.28 1.12 2.56 1.68 3.8 c0.16 0.4 0.36 0.76 0.56 1.12 c0.16 0.28 0.32 0.48 0.56 0.64 s0.56 0.08 0.68 -0.12 c0.08 -0.12 0.12 -0.24 0.16 -0.36 c0.12 -0.32 0.16 -0.68 0.16 -1.04 c0.04 -0.72 0.04 -1.44 0.04 -2.12 l0 -6.96 l0 -0.96 c0.04 -0.4 0.08 -0.8 0.16 -1.16 c0.12 -0.56 0.48 -0.88 1.04 -1.04 c0.28 -0.08 0.56 -0.12 0.84 -0.12 c1 -0.04 2 -0.04 3 0 c0.28 0 0.6 0.04 0.88 0.12 c0.52 0.16 0.88 0.52 1 1.08 c0.08 0.36 0.12 0.76 0.12 1.12 c0.04 0.32 0.04 0.64 0.04 1 l0 21.24 c0 0.36 0 0.72 -0.04 1.04 c0 0.44 -0.04 0.84 -0.16 1.24 c-0.16 0.44 -0.44 0.72 -0.84 0.88 c-0.36 0.16 -0.68 0.2 -1.04 0.2 c-1.48 0.04 -2.96 0.04 -4.44 0 c-0.24 0 -0.44 -0.04 -0.68 -0.08 c-0.68 -0.12 -1.2 -0.48 -1.56 -1.04 c-0.16 -0.28 -0.28 -0.52 -0.4 -0.8 c-0.32 -0.68 -0.64 -1.4 -0.96 -2.08 c-0.6 -1.36 -1.2 -2.72 -1.84 -4.08 c-0.36 -0.84 -0.76 -1.68 -1.12 -2.52 c-0.24 -0.52 -0.48 -1 -0.72 -1.52 c-0.2 -0.4 -0.48 -0.76 -0.8 -1.08 c-0.2 -0.2 -0.56 -0.16 -0.76 0.08 c-0.16 0.24 -0.2 0.48 -0.24 0.72 c-0.08 0.8 -0.2 1.6 -0.16 2.4 l0 2.64 c-0.04 1.6 0 3.2 -0.04 4.8 c0 0.4 0 0.8 -0.04 1.16 c-0.08 0.64 -0.52 1.16 -1.16 1.28 c-0.32 0.08 -0.68 0.12 -1.04 0.16 l-2.32 0 z M297.031 39.995586 c-0.4196 -0.0032031 -0.8366 -0.056796 -1.2422 -0.1684 c-0.506 -0.13879 -0.83884 -0.47596 -0.9944 -0.96676 c-0.076796 -0.24199 -0.10719 -0.50436 -0.12117 -0.75956 c-0.022812 -0.418 -0.02 -0.8376 -0.02 -1.2564 c-0.0012109 -5.0272 -0.00042968 -10.054 -0.0016406 -15.082 c0 -0.4836 0 -0.9672 -0.019609 -1.45 c-0.010781 -0.25602 -0.037188 -0.51724 -0.1032 -0.76364 c-0.16238 -0.6036 -0.5436 -1.0108 -1.1556 -1.188 c-0.3752 -0.1084 -0.7588 -0.14559 -1.1468 -0.14879 c-0.612 -0.0051952 -1.2244 -0.0035938 -1.8368 -0.0071876 c-0.35442 -0.0023828 -0.7092 -0.0023828 -1.0632 -0.018789 c-0.22442 -0.010391 -0.4528 -0.028008 -0.67 -0.080392 c-0.6188 -0.14922 -1.0316 -0.52564 -1.146 -1.1664 c-0.21641 -1.2168 -0.21719 -2.4372 -0.0059764 -3.6552 c0.10441 -0.6004 0.4716 -0.98116 1.0496 -1.1392 c0.2768 -0.075588 0.5696 -0.10797 0.85724 -0.12598 c0.38558 -0.023594 0.7732 -0.018008 1.16 -0.018008 c2.6748 -0.0012109 5.3492 -0.00042968 8.024 -0.00042968 s5.3496 -0.00078124 8.0244 0.00082032 c0.3868 0 0.7748 -0.0060156 1.1596 0.023203 c0.2868 0.021992 0.5788 0.066796 0.8524 0.15238 c0.458 0.1432 0.7644 0.4664 0.9152 0.9248 c0.11199 0.33879 0.1616 0.69116 0.1652 1.0468 c0.0067968 0.6764 0.014414 1.3536 -0.0051952 2.0296 c-0.008008 0.2868 -0.053592 0.58 -0.13359 0.8556 c-0.16558 0.5712 -0.5556 0.94244 -1.138 1.0676 c-0.31238 0.067188 -0.6384 0.086408 -0.9592 0.093592 c-0.6764 0.015195 -1.3532 0.0071876 -2.03 0.011172 c-0.29 0.0016016 -0.5808 -0.004414 -0.86956 0.017578 c-0.25558 0.019609 -0.5156 0.0484 -0.762 0.11602 c-0.6812 0.18719 -1.1192 0.62916 -1.244 1.3316 c-0.072812 0.4112 -0.10402 0.8308 -0.12961 1.2484 c-0.021602 0.3532 -0.0087892 0.7084 -0.0087892 1.0628 c0 4.9308 0 9.8616 -0.0012109 14.792 c0 0.4512 -0.00078124 0.90244 -0.02 1.3532 c-0.0096092 0.22359 -0.034805 0.4532 -0.098788 0.6668 c-0.15801 0.5284 -0.5004 0.8924 -1.0412 1.048 c-0.34281 0.098788 -0.6944 0.15 -1.05 0.15199 c-1.0632 0.005586 -2.1268 0.0079688 -3.19 0.00078124 z"></path></g>
			</g>
		</svg>
	